<svg xmlns="http://www.w3.org/2000/svg" viewBox="0 0 24 24" id="adobe-illustrator"><path fill="#261200" d="M22 0H2a2 2 0 0 0-2 2v20a2 2 0 0 0 2 2h20a2 2 0 0 0 2-2V2a2 2 0 0 0-2-2z"></path><path fill="#FF7C00" d="M22 1c.551 0 1 .449 1 1v20c0 .551-.449 1-1 1H2c-.551 0-1-.449-1-1V2c0-.551.449-1 1-1h20zm0-1H2a2 2 0 0 0-2 2v20a2 2 0 0 0 2 2h20a2 2 0 0 0 2-2V2a2 2 0 0 0-2-2z"></path><path fill="#FF7C00" d="M17.531 16.242c0 .083-.016.116-.115.116h-1.55c-.1 0-.133-.05-.133-.13V8.34l-.008.001c0-.08.033-.11.116-.11h1.57c.088 0 .12.033.12.116v7.895zm-.912-9.152c-.6 0-1.01-.363-1.01-1.023h.004c0-.643.445-1.023 1.023-1.023.61 0 1.023.412 1.023 1.023 0 .66-.43 1.023-1.04 1.023zM11.05 5.424c-.016-.082-.05-.1-.116-.1H8.838c-.05 0-.083.034-.083.1-.016.495-.048.653-.098.833l-2.84 9.945c-.015.115 0 .148.1.148h1.468c.098 0 .131-.019.148-.102l.792-2.998-.003-.001h3.207l.825 3.015c.016.066.065.086.148.086h1.65c.083 0 .1-.049.083-.132L11.05 5.424zm-2.297 6.201c.413-1.55.941-3.53 1.155-4.7h.017c.248 1.172.908 3.594 1.188 4.7h-2.36z"></path></svg>